<svg width="48" height="48" viewBox="0 0 48 48" fill="none" xmlns="http://www.w3.org/2000/svg">
<circle cx="24" cy="24" r="24" fill="#333D47"/>
<path d="M22.5458 15.184C22.6258 15.008 22.7138 14.88 22.8098 14.8C22.9218 14.72 23.1218 14.68 23.4098 14.68H24.6338C24.9058 14.68 25.0978 14.72 25.2098 14.8C25.3218 14.88 25.4258 15.008 25.5218 15.184C25.9538 16.16 26.4098 17.312 26.8898 18.64C27.3698 19.952 27.8338 21.328 28.2818 22.768C28.7458 24.208 29.1858 25.648 29.6018 27.088C30.0338 28.512 30.4098 29.816 30.7298 31H28.7858C28.6098 30.328 28.4178 29.616 28.2098 28.864C28.0018 28.112 27.7778 27.328 27.5378 26.512H20.4338C20.1938 27.328 19.9618 28.112 19.7378 28.864C19.5298 29.616 19.3378 30.328 19.1618 31H17.2658C17.5858 29.816 17.9618 28.512 18.3938 27.088C18.8258 25.648 19.2738 24.216 19.7378 22.792C20.2178 21.352 20.6978 19.968 21.1778 18.64C21.6578 17.312 22.1138 16.16 22.5458 15.184ZM20.9138 24.904H27.0578C26.8178 24.104 26.5618 23.304 26.2898 22.504C26.0338 21.688 25.7778 20.904 25.5218 20.152C25.2658 19.384 25.0098 18.656 24.7538 17.968C24.4978 17.28 24.2578 16.648 24.0338 16.072C23.7938 16.648 23.5378 17.28 23.2658 17.968C23.0098 18.656 22.7458 19.384 22.4738 20.152C22.2178 20.904 21.9538 21.688 21.6818 22.504C21.4258 23.304 21.1698 24.104 20.9138 24.904Z" fill="white"/>
</svg>
