<svg width="48" height="48" viewBox="0 0 48 48" fill="none" xmlns="http://www.w3.org/2000/svg">
<circle cx="24" cy="24" r="24" fill="#333D47"/>
<path d="M18.6282 14.68H23.2362C24.1322 14.68 25.0042 14.816 25.8522 15.088C26.7002 15.344 27.4442 15.776 28.0842 16.384C28.7402 16.992 29.2602 17.792 29.6442 18.784C30.0442 19.776 30.2442 21.008 30.2442 22.48V23.2C30.2442 24.656 30.0442 25.888 29.6442 26.896C29.2602 27.888 28.7402 28.688 28.0842 29.296C27.4442 29.904 26.7002 30.344 25.8522 30.616C25.0042 30.872 24.1322 31 23.2362 31H18.6282V14.68ZM23.1162 29.416C23.9162 29.416 24.6362 29.296 25.2762 29.056C25.9322 28.8 26.4842 28.416 26.9322 27.904C27.3962 27.392 27.7482 26.744 27.9882 25.96C28.2282 25.16 28.3482 24.216 28.3482 23.128V22.552C28.3482 20.36 27.8762 18.768 26.9322 17.776C26.0042 16.768 24.7322 16.264 23.1162 16.264H20.5242V29.416H23.1162Z" fill="white"/>
</svg>
