<svg width="48" height="48" viewBox="0 0 48 48" fill="none" xmlns="http://www.w3.org/2000/svg">
<circle cx="24" cy="24" r="24" fill="#333D47"/>
<path d="M24.914 14.68C26.37 14.68 27.522 15.064 28.37 15.832C29.234 16.584 29.666 17.608 29.666 18.904C29.666 19.832 29.434 20.6 28.97 21.208C28.522 21.8 27.97 22.208 27.314 22.432C28.162 22.688 28.874 23.152 29.45 23.824C30.026 24.496 30.314 25.368 30.314 26.44C30.314 27.208 30.178 27.88 29.906 28.456C29.65 29.016 29.282 29.488 28.802 29.872C28.322 30.24 27.746 30.52 27.074 30.712C26.402 30.904 25.666 31 24.866 31H18.722V14.68H24.914ZM20.618 23.368V29.44H24.554C25.898 29.44 26.874 29.192 27.482 28.696C28.09 28.184 28.394 27.416 28.394 26.392C28.394 25.4 28.066 24.648 27.41 24.136C26.77 23.624 25.834 23.368 24.602 23.368H20.618ZM24.554 21.784C25.642 21.784 26.45 21.528 26.978 21.016C27.522 20.504 27.794 19.816 27.794 18.952C27.794 18.056 27.506 17.384 26.93 16.936C26.37 16.472 25.562 16.24 24.506 16.24H20.618V21.784H24.554Z" fill="white"/>
</svg>
