<svg width="48" height="48" viewBox="0 0 48 48" fill="none" xmlns="http://www.w3.org/2000/svg">
<circle cx="24" cy="24" r="24" fill="#333D47"/>
<path d="M24.4702 31.288C23.6542 31.288 22.8782 31.152 22.1422 30.88C21.4062 30.592 20.7502 30.136 20.1742 29.512C19.6142 28.888 19.1662 28.072 18.8302 27.064C18.5102 26.04 18.3502 24.792 18.3502 23.32V22.36C18.3502 20.888 18.5102 19.648 18.8302 18.64C19.1662 17.616 19.6142 16.792 20.1742 16.168C20.7502 15.544 21.4062 15.096 22.1422 14.824C22.8782 14.536 23.6542 14.392 24.4702 14.392C25.2702 14.392 25.9822 14.504 26.6062 14.728C27.2462 14.952 27.7982 15.256 28.2622 15.64C28.7262 16.024 29.1022 16.464 29.3902 16.96C29.6782 17.456 29.8622 17.976 29.9422 18.52L29.9902 18.832H28.0942C27.8222 17.984 27.3982 17.312 26.8222 16.816C26.2622 16.304 25.4782 16.048 24.4702 16.048C23.6382 16.048 22.9502 16.232 22.4062 16.6C21.8622 16.952 21.4302 17.432 21.1102 18.04C20.8062 18.632 20.5902 19.312 20.4622 20.08C20.3342 20.832 20.2702 21.616 20.2702 22.432V23.248C20.2702 24.064 20.3342 24.856 20.4622 25.624C20.5902 26.376 20.8062 27.056 21.1102 27.664C21.4302 28.256 21.8622 28.736 22.4062 29.104C22.9502 29.456 23.6382 29.632 24.4702 29.632C25.4782 29.632 26.2782 29.368 26.8702 28.84C27.4782 28.312 27.8942 27.568 28.1182 26.608H30.0382L29.9902 26.92C29.8942 27.528 29.6942 28.104 29.3902 28.648C29.1022 29.176 28.7262 29.64 28.2622 30.04C27.7982 30.424 27.2462 30.728 26.6062 30.952C25.9662 31.176 25.2542 31.288 24.4702 31.288Z" fill="white"/>
</svg>
