<svg width="124" height="124" viewBox="0 0 124 124" fill="none" xmlns="http://www.w3.org/2000/svg">
<circle cx="62" cy="62" r="61" fill="white" stroke="#D21E47" stroke-width="2"/>
<path d="M42.9689 39.6522L44.4374 32.3064C44.7366 30.8097 45.5452 29.4629 46.7258 28.4954C47.9063 27.5278 49.3857 26.9994 50.912 27H73.088C74.6143 26.9994 76.0937 27.5278 77.2742 28.4954C78.4548 29.4629 79.2634 30.8097 79.5626 32.3064L81.0311 39.6522C81.2616 40.8032 81.8141 41.8652 82.6244 42.7145C83.4346 43.5639 84.4693 44.1659 85.6082 44.4504C88.2911 45.1216 90.6727 46.6702 92.3744 48.8503C94.0761 51.0303 95.0003 53.7166 95 56.4822V79.8C95 83.3009 93.6093 86.6583 91.1338 89.1338C88.6583 91.6093 85.3009 93 81.8 93H42.2C38.6991 93 35.3417 91.6093 32.8662 89.1338C30.3907 86.6583 29 83.3009 29 79.8V56.4822C28.9997 53.7166 29.9239 51.0303 31.6256 48.8503C33.3273 46.6702 35.7089 45.1216 38.3918 44.4504C39.5307 44.1659 40.5654 43.5639 41.3756 42.7145C42.1859 41.8652 42.7384 40.8032 42.9689 39.6522Z" fill="white" stroke="#D21E47" stroke-width="2" stroke-linecap="round" stroke-linejoin="round"/>
<path d="M61.9998 79.7999C69.29 79.7999 75.1998 73.8901 75.1998 66.5999C75.1998 59.3097 69.29 53.3999 61.9998 53.3999C54.7096 53.3999 48.7998 59.3097 48.7998 66.5999C48.7998 73.8901 54.7096 79.7999 61.9998 79.7999Z" fill="white" stroke="#D21E47" stroke-width="2" stroke-linecap="round" stroke-linejoin="round"/>
<path d="M58.7002 40.2H65.3002H58.7002Z" fill="white"/>
<path d="M58.7002 40.2H65.3002" stroke="#D21E47" stroke-width="2" stroke-linecap="round" stroke-linejoin="round"/>
<line x1="62.2002" y1="59" x2="62.2002" y2="75" stroke="#D21E47" stroke-width="2"/>
<line x1="70" y1="67.2" x2="54" y2="67.2" stroke="#D21E47" stroke-width="2"/>
</svg>
