<svg width="34" height="34" viewBox="0 0 34 34" fill="none" xmlns="http://www.w3.org/2000/svg">
<path d="M16.9999 33.6666C26.2047 33.6666 33.6666 26.2047 33.6666 16.9999C33.6666 7.79517 26.2047 0.333252 16.9999 0.333252C7.79517 0.333252 0.333252 7.79517 0.333252 16.9999C0.333252 26.2047 7.79517 33.6666 16.9999 33.6666Z" fill="#D21E47"/>
<path d="M17 25.3333H17.0167" stroke="white" stroke-width="3" stroke-linecap="round" stroke-linejoin="round"/>
<path d="M12.1499 12C12.5417 10.8861 13.3152 9.94682 14.3332 9.34853C15.3512 8.75024 16.5481 8.53154 17.7119 8.73116C18.8757 8.93078 19.9313 9.53585 20.6917 10.4392C21.4521 11.3425 21.8683 12.4858 21.8666 13.6666C21.8666 17 16.8666 18 16.8666 21" stroke="white" stroke-width="3" stroke-linecap="round" stroke-linejoin="round"/>
</svg>
