<svg width="264" height="81" viewBox="0 0 264 81" fill="none" xmlns="http://www.w3.org/2000/svg">
<path d="M92.1921 38.3809C92.1081 37.4189 91.8305 36.6959 90.9267 36.6959C90.223 36.6959 89.8033 37.2188 89.8033 38C89.8033 38.8393 90.3263 39.4655 91.1268 40.0853L91.8499 40.647C93.6318 42.0285 94.5743 42.913 94.5743 44.9983C94.5743 47.3419 93.2315 48.646 90.9848 48.646C88.5831 48.646 87.4404 47.2063 87.4404 45.1016V44.598H89.5838C89.6226 45.7601 90.1068 46.6059 91.0687 46.6059C91.9145 46.6059 92.3341 46.0829 92.3341 45.1404C92.3341 43.9395 91.469 43.2746 90.4296 42.4546L89.7065 41.893C88.383 40.8729 87.5631 39.8464 87.5631 38.1226C87.5631 35.9147 88.8672 34.6558 90.9525 34.6558C93.2379 34.6558 94.3613 35.9792 94.3613 37.9225V38.3809H92.1921Z" fill="white"/>
<path d="M103.219 40.7308V42.5772C103.219 47.4902 101.773 48.6717 99.468 48.6717C97.1632 48.6717 95.717 47.4902 95.717 42.5772V40.7308C95.717 35.8177 97.1567 34.6363 99.468 34.6363C101.779 34.6363 103.219 35.8177 103.219 40.7308ZM98.4092 33.5517H96.7629C97.1051 32.7511 97.5828 31.8279 98.1058 31.1436H100.811C101.334 31.8279 101.812 32.7511 102.154 33.5517H100.507C100.269 33.1514 99.8683 32.6284 99.468 32.1507C99.0484 32.6284 98.6481 33.1514 98.4092 33.5517ZM100.934 40.7889C100.934 38.3614 100.791 36.7409 99.468 36.7409C98.1445 36.7409 98.0025 38.3614 98.0025 40.7889V42.5126C98.0025 44.9401 98.1445 46.5606 99.468 46.5606C100.791 46.5606 100.934 44.9336 100.934 42.5126V40.7889Z" fill="white"/>
<path d="M112.741 34.8364V48.4651H110.676L107.151 39.6462V48.4651H104.988V34.8364H107.254L110.579 43.1518V34.8364H112.741Z" fill="white"/>
<path d="M114.51 42.6545V40.7112C114.51 35.7982 116.034 34.6167 118.3 34.6167C120.863 34.6167 121.748 36.3405 121.748 38.1804V38.6194H119.624C119.501 37.3541 119.185 36.7149 118.281 36.7149C117.138 36.7149 116.796 37.7802 116.796 40.7628V42.5253C116.796 45.5338 117.138 46.5733 118.281 46.5733C119.462 46.5733 119.727 45.4693 119.727 43.6487V43.0289H118.184V40.9823H121.909V43.6487C121.909 47.5546 120.586 48.6779 118.261 48.6779C115.95 48.6844 114.51 47.5029 114.51 42.6545Z" fill="white"/>
<path d="M130.793 42.5126C130.373 43.0937 129.973 43.6554 129.547 44.1977V48.4651H127.319V34.8364H129.547V40.989C130.709 39.0845 131.871 36.9411 132.755 34.8364H135.041C134.318 36.7603 133.336 38.6261 132.232 40.3692C133.478 42.9775 134.815 46.6445 135.338 48.4651H133.033C132.613 47.0835 131.709 44.514 130.793 42.5126Z" fill="white"/>
<path d="M144.279 34.8364V48.4651H141.994V42.5514H138.805V48.4651H136.519V34.8364H138.805V40.5113H141.994V34.8364H144.279Z" fill="white"/>
<path d="M146.048 42.5708V40.7244C146.048 35.8113 147.488 34.6299 149.799 34.6299C152.104 34.6299 153.55 35.8113 153.55 40.7244V42.5708C153.55 47.4838 152.104 48.6653 149.799 48.6653C147.494 48.6653 146.048 47.4838 146.048 42.5708ZM151.258 42.5127V40.7889C151.258 38.3615 151.116 36.741 149.793 36.741C148.469 36.741 148.327 38.3615 148.327 40.7889V42.5127C148.327 44.9402 148.469 46.5606 149.793 46.5606C151.116 46.5606 151.258 44.9402 151.258 42.5127Z" fill="white"/>
<path d="M161.807 46.4185V48.4651H155.312V34.8364H161.626V36.883H157.598V40.5306H161.187V42.5385H157.598V46.425H161.807V46.4185Z" fill="white"/>
<path d="M174.719 34.8364V48.4651H172.434V42.5514H169.245V48.4651H166.959V34.8364H169.245V40.5113H172.434V34.8364H174.719Z" fill="white"/>
<path d="M176.482 42.5708V40.7244C176.482 35.8113 177.922 34.6299 180.233 34.6299C182.538 34.6299 183.984 35.8113 183.984 40.7244V42.5708C183.984 47.4838 182.538 48.6653 180.233 48.6653C177.928 48.6653 176.482 47.4838 176.482 42.5708ZM181.692 42.5127V40.7889C181.692 38.3615 181.55 36.741 180.226 36.741C178.903 36.741 178.761 38.3615 178.761 40.7889V42.5127C178.761 44.9402 178.903 46.5606 180.226 46.5606C181.55 46.5606 181.692 44.9402 181.692 42.5127Z" fill="white"/>
<path d="M193.5 34.8364V48.4651H191.434L187.909 39.6462V48.4651H185.746V34.8364H188.012L191.337 43.1518V34.8364H193.5Z" fill="white"/>
<path d="M197.697 46.864C197.697 48.7104 196.631 50.1695 196.212 50.7506H195.088C195.23 50.0081 195.469 48.5426 195.469 46.722V46.1216H197.697V46.864Z" fill="white"/>
<path d="M209.221 46.4185V48.4651H203.165V34.8364H205.45V46.4185H209.221Z" fill="white"/>
<path d="M216.342 45.4566H212.836C212.655 46.4766 212.474 47.5031 212.332 48.4651H210.105C210.867 44.0943 212.01 38.7423 213.03 35.256C213.107 34.9526 213.249 34.8364 213.733 34.8364H215.56C216.019 34.8364 216.161 34.9591 216.238 35.256C217.239 38.7617 218.401 44.0943 219.163 48.4651H216.839C216.703 47.5031 216.542 46.4831 216.342 45.4566ZM213.617 33.5517H211.971C212.313 32.7511 212.791 31.8279 213.314 31.1436H216.019C216.542 31.8279 217.019 32.7511 217.362 33.5517H215.715C215.476 33.1514 215.076 32.6284 214.676 32.1507C214.256 32.6284 213.856 33.1514 213.617 33.5517ZM215.98 43.4552C215.541 41.1698 215.037 38.9231 214.598 37.0637C214.14 38.9295 213.656 41.1762 213.217 43.4552H215.98Z" fill="white"/>
<path d="M227.607 34.8364V44.8368C227.607 47.6839 226.084 48.6459 223.902 48.6459C221.719 48.6459 220.196 47.6839 220.196 44.6754V34.8364H222.481V44.6173C222.481 46.0376 223.062 46.5218 223.902 46.5218C224.741 46.5218 225.322 46.0376 225.322 44.6173V34.8364H227.607Z" fill="white"/>
<path d="M241.023 34.8364V48.4651H238.738V42.5514H235.548V48.4651H233.263V34.8364H235.548V40.5113H238.738V34.8364H241.023Z" fill="white"/>
<path d="M242.785 42.5708V40.7244C242.785 35.8113 244.225 34.6299 246.536 34.6299C248.841 34.6299 250.287 35.8113 250.287 40.7244V42.5708C250.287 47.4838 248.841 48.6653 246.536 48.6653C244.232 48.6653 242.785 47.4838 242.785 42.5708ZM247.995 42.5127V40.7889C247.995 38.3615 247.853 36.741 246.53 36.741C245.206 36.741 245.064 38.3615 245.064 40.7889V42.5127C245.064 44.9402 245.206 46.5606 246.53 46.5606C247.853 46.5606 247.995 44.9402 247.995 42.5127Z" fill="white"/>
<path d="M259.81 34.8364V48.4651H257.744L254.219 39.6462V48.4651H252.056V34.8364H254.322L257.647 43.1518V34.8364H259.81Z" fill="white"/>
<path d="M264 46.864C264 48.7104 262.935 50.1695 262.515 50.7506H261.392C261.534 50.0081 261.773 48.5426 261.773 46.722V46.1216H264V46.864Z" fill="white"/>
<path d="M95.8009 53.52V67.1487H93.5155V61.235H90.3262V67.1487H88.0408V53.52H90.3262V59.1949H93.5155V53.52H95.8009Z" fill="white"/>
<path d="M103.342 64.1402H99.8359C99.6551 65.1602 99.4743 66.1868 99.3323 67.1487H97.105C97.8668 62.778 99.0095 57.4259 100.03 53.9397C100.107 53.6362 100.249 53.52 100.733 53.52H102.56C103.019 53.52 103.161 53.6427 103.238 53.9397C104.239 57.4453 105.401 62.778 106.163 67.1487H103.839C103.703 66.1868 103.542 65.1602 103.342 64.1402ZM102.98 62.1388C102.541 59.8534 102.037 57.6067 101.598 55.7473C101.14 57.6131 100.656 59.8598 100.217 62.1388H102.98Z" fill="white"/>
<path d="M115.227 53.52V67.1487H113.161L109.636 58.3298V67.1487H107.474V53.52H109.74L113.065 61.8354V53.52H115.227Z" fill="white"/>
<path d="M125.073 53.52V67.1487H122.787V61.235H119.598V67.1487H117.312V53.52H119.598V59.1949H122.787V53.52H125.073Z" fill="white"/>
<path d="M138.107 57.6842C138.107 60.2924 136.765 61.8548 134.202 61.8548H133.059V67.1487H130.773V53.52H134.202C136.765 53.52 138.107 55.0824 138.107 57.6842ZM135.822 57.6842C135.822 56.38 135.383 55.5214 134.118 55.5214H133.052V59.8534H134.118C135.383 59.8534 135.822 58.9883 135.822 57.6842Z" fill="white"/>
<path d="M147.307 53.52V67.1487H145.022V61.235H141.833V67.1487H139.547V53.52H141.833V59.1949H145.022V53.52H147.307Z" fill="white"/>
<path d="M156.772 53.52V63.5204C156.772 66.3675 155.248 67.3294 153.066 67.3294C150.884 67.3294 149.36 66.3675 149.36 63.359V53.52H151.646V63.3009C151.646 64.7212 152.227 65.2054 153.066 65.2054C153.905 65.2054 154.486 64.7212 154.486 63.3009V53.52H156.772ZM153.886 52.2352H152.059C152.401 51.4347 152.879 50.5502 153.402 49.8271H155.668C155.067 50.5502 154.325 51.5703 153.886 52.2352Z" fill="white"/>
<path d="M158.502 61.2351V59.4338C158.502 54.5208 159.987 53.3394 162.253 53.3394C164.842 53.3394 165.623 55.0244 165.623 57.0451V57.3421H163.499C163.376 56.1219 163.118 55.4376 162.214 55.4376C160.949 55.4376 160.794 57.0451 160.794 59.4855V61.1705C160.794 63.6367 160.955 65.2184 162.214 65.2184C163.118 65.2184 163.434 64.4179 163.499 62.9718H165.623V63.6303C165.623 65.4961 164.842 67.3167 162.253 67.3167C159.98 67.3296 158.502 66.1481 158.502 61.2351Z" fill="white"/>
<path d="M178.529 53.52V67.1487H176.243V61.235H173.054V67.1487H170.769V53.52H173.054V59.1949H176.243V53.52H178.529Z" fill="white"/>
<path d="M180.291 61.2544V59.408C180.291 54.4949 181.731 53.3135 184.042 53.3135C186.347 53.3135 187.793 54.4949 187.793 59.408V61.2544C187.793 66.1674 186.347 67.3489 184.042 67.3489C181.737 67.3489 180.291 66.1674 180.291 61.2544ZM185.501 61.1963V59.4725C185.501 57.0451 185.359 55.4246 184.036 55.4246C182.712 55.4246 182.57 57.0515 182.57 59.4725V61.1963C182.57 63.6238 182.712 65.2442 184.036 65.2442C185.359 65.2442 185.501 63.6173 185.501 61.1963Z" fill="white"/>
<path d="M197.315 53.52V67.1487H195.25L191.725 58.3298V67.1487H189.562V53.52H191.828L195.153 61.8354V53.52H197.315Z" fill="white"/>
<path d="M149.683 33.326C150.309 32.7901 150.574 32.1445 150.477 31.3892C150.245 31.3634 150.045 31.273 149.87 31.118C149.702 30.9566 149.599 30.763 149.567 30.5241C149.535 30.2658 149.599 30.027 149.767 29.8075C149.935 29.588 150.154 29.4588 150.426 29.4201C150.761 29.3749 151.045 29.4588 151.278 29.6654C151.51 29.8785 151.646 30.1303 151.684 30.4208C151.775 31.0664 151.665 31.6862 151.368 32.2866C151.071 32.8805 150.626 33.3712 150.038 33.7586L149.683 33.326Z" fill="white"/>
<path d="M184.262 34.6686C184.262 36.0437 183.526 37.1542 183.196 37.6319H182.525C182.654 37.0896 182.886 36.0954 182.886 34.6234V34.165H184.262V34.6686Z" fill="white"/>
<path d="M250.526 34.6686C250.526 36.0437 249.79 37.1542 249.461 37.6319H248.79C248.919 37.0896 249.151 36.0954 249.151 34.6234V34.165H250.526V34.6686Z" fill="white"/>
<path d="M188.2 53.6427C188.2 55.0179 187.464 56.1283 187.134 56.6061H186.463C186.592 56.0637 186.824 55.0695 186.824 53.5975V53.1392H188.2V53.6427Z" fill="white"/>
<path d="M100.481 68.55C100.481 68.04 100.875 67.6655 101.366 67.6655C101.857 67.6655 102.25 68.04 102.25 68.55C102.25 69.0536 101.857 69.4345 101.366 69.4345C100.875 69.4345 100.481 69.06 100.481 68.55Z" fill="white"/>
<path d="M105.492 29.7168C104.898 30.4334 104.142 31.4406 103.703 32.0991H102.296C102.632 31.305 103.109 30.4334 103.626 29.7168H105.492Z" fill="white"/>
<path d="M37.7807 4.17705C56.5161 4.17705 71.8621 18.3868 73.347 36.4637C72.7659 37.2126 71.946 37.6257 71.0422 37.8194C67.8658 38.4909 66.8845 35.7406 64.2504 34.0039C61.597 32.2608 59.1631 31.5829 56.7098 29.1296C55.722 28.1418 55.4702 26.4697 54.4953 25.4368C53.1912 24.0552 52.3907 23.6614 50.6153 22.9706C47.5035 21.7697 44.8371 20.8723 42.2483 18.7354C41.8157 18.3674 40.7827 17.8897 39.8208 17.7153C39.4076 17.6443 39.2268 17.7024 39.0848 17.8638C38.7039 18.3416 38.3488 18.9484 38.0131 19.5101C37.9163 19.6715 37.5999 20.1234 37.3352 20.3623C36.8317 20.8207 36.2119 21.3824 35.7341 21.6793C33.1388 23.2546 29.7042 24.6104 28.2258 27.2703C27.9482 27.7738 25.114 29.078 24.4554 29.6074C23.4225 30.4466 22.4089 31.2795 21.3501 32.0736C20.3688 32.8095 18.9872 33.9523 17.9607 34.7205C17.4119 34.5204 16.8567 34.3396 16.3402 34.2363C15.12 33.991 14.0935 33.0678 13.0476 32.4157C11.6983 31.5764 11.8081 31.4731 11.382 31.2407C11.014 31.0277 10.8268 30.9179 10.6847 30.834C9.6905 30.2594 9.6324 30.8469 8.21207 31.712C7.03062 32.4416 5.66839 33.6488 4.64834 34.6043C3.84134 35.3597 3.01497 36.1731 2.16923 37.0124C3.38942 18.6773 18.8645 4.17705 37.7807 4.17705ZM8.90932 59.9894C6.15905 56.2708 4.13832 51.9969 3.03433 47.3743C3.35068 47.4454 3.73159 47.5422 4.37073 47.7488C6.4754 48.4331 10.4265 49.7308 13.2865 48.4073C15.1007 47.568 18.2447 46.8772 19.4585 46.393C20.6012 45.9282 23.0287 46.9934 20.1686 45.1147C20.1622 45.1083 20.1557 45.1083 20.1557 45.1083C20.117 45.0825 20.0718 45.0566 20.0072 45.0308C19.9169 44.9985 19.82 44.9727 19.7167 44.9469C19.4327 44.8694 17.1408 45.3407 16.6372 45.2632C16.4758 45.2245 16.3273 45.1664 16.1853 45.0889C14.9393 44.411 20.2397 40.2727 20.414 39.2268C18.8903 39.3882 17.6314 40.3566 16.2692 40.9506C14.6681 41.6608 12.9185 41.6801 11.2012 41.6866C9.23858 41.693 7.71496 43.2167 5.9912 43.9204C5.08735 44.2884 3.60892 44.6305 2.61469 45.2955C2.53722 44.8694 2.47266 44.4433 2.41456 44.0108C2.44684 43.2619 2.53076 42.3645 2.71153 41.3444C3.10535 39.0913 4.01565 37.361 6.04284 34.6624C6.04284 34.6624 8.01193 32.2866 9.16111 31.5248C9.61303 31.2278 10.0972 30.7824 10.5685 31.0858C11.0721 31.4021 10.4265 33.3454 11.7693 33.6747C12.5828 33.8683 11.8662 35.2176 12.1438 35.9924C12.4408 36.8316 8.79311 40.0145 9.76152 40.4083C10.2974 40.6343 12.7119 39.4076 13.9967 39.0009C15.1329 38.6393 16.3338 38.6135 17.5733 37.4514C18.8452 36.2571 20.1234 35.5985 20.1234 35.5985C21.1564 34.7334 22.1635 33.8296 23.1901 32.9451C24.1843 32.08 25.1398 31.1762 26.1082 30.2659C26.7215 29.6848 29.4589 28.1806 29.6977 27.6576C30.9696 24.9009 34.3009 23.2934 36.78 21.5373C37.2384 21.2145 37.729 20.5495 38.0066 20.1622C38.2843 19.7748 38.5877 19.2002 38.7426 19.0195C39.0654 18.6579 39.1365 18.3868 39.4915 18.2189C39.6336 18.1479 40.1888 18.1479 40.4341 18.4061C41.2411 19.2648 42.3386 20.0008 42.3774 20.9046C42.4419 22.2991 46.3285 23.5064 47.2129 24.591C47.5745 25.0365 47.794 25.4561 47.9425 25.8758C47.2581 25.5982 46.5932 25.2754 46.0057 24.8428C45.6119 24.5652 44.6951 24.6362 44.2238 24.5523C42.8874 24.307 43.1973 24.9461 43.9397 25.7144C44.7015 26.5085 45.5796 27.1928 46.2833 28.0515C47.0838 29.0457 47.0128 29.8462 47.2259 31.0277C47.4647 32.2995 48.2136 33.397 48.8334 34.5075C49.4661 35.6308 49.4209 36.8381 49.7631 38.0325C50.1375 39.2397 51.164 40.2598 52.0162 41.1378C52.7458 41.9125 54.3985 43.7848 55.3024 43.3781C56.2643 42.9455 57.4522 44.1205 57.8138 43.7977C58.1753 43.4814 56.8518 41.9448 57.3618 41.4671C57.8719 40.9893 60.0798 41.7253 60.5317 43.1521C61.0482 44.7919 60.9966 44.934 60.9126 46.1283C60.8545 46.8966 60.5511 47.5487 60.0153 48.091C59.3632 48.7624 57.846 49.847 58.143 50.9574C59.5375 50.2021 61.0482 50.1246 62.6041 50.1827C64.1148 50.2344 65.2253 49.6081 66.2324 48.5235C66.6779 48.0522 67.9626 46.548 68.6922 47.2969C69.1312 47.7553 67.8335 49.6017 69.2538 49.2208C70.2029 48.9625 71.0486 48.233 71.9073 47.7617C72.1332 47.6326 72.3463 47.5035 72.527 47.3679C71.4101 52.0679 69.3378 56.4128 66.5229 60.1767L67.5559 61.0289C72.5658 54.618 75.5614 46.5544 75.5614 37.7871C75.5614 16.9213 58.6466 0 37.7807 0C16.9148 0 0 16.9213 0 37.7807C0 46.4705 2.93749 54.4631 7.8699 60.8416L8.90932 59.9894ZM24.2618 60.0217C24.1972 60.4543 23.642 63.9147 23.0287 67.7367C21.9053 67.4913 20.782 67.0652 19.523 66.3809C18.277 65.6772 17.328 64.9541 16.5339 64.1342C19.4585 61.5905 22.1054 59.2922 22.4347 59.0081C23.2223 58.3367 23.6032 58.1817 23.9777 58.3819C24.3392 58.5885 24.4102 58.9952 24.2618 60.0217ZM26.431 54.4114C26.4245 54.3985 26.3471 54.3598 26.2438 54.3017C26.1405 54.25 26.063 54.1984 26.0565 54.1919C26.063 54.1984 26.063 54.1984 26.063 54.1984C24.2876 53.2171 22.5251 53.2622 20.5108 54.7342C17.7218 56.7679 4.29972 68.1305 4.29972 68.1305L8.16688 71.4231C8.16688 71.4231 10.3232 69.5444 12.9637 67.246C14.2485 68.3823 15.714 69.4281 17.3474 70.332C18.9743 71.2294 20.6335 71.9202 22.2733 72.4044C21.7181 75.8713 21.2662 78.6926 21.2662 78.6926L26.1017 80.2291C26.1017 80.2291 28.6583 62.8301 28.9101 59.389C29.0909 56.9228 28.1999 55.3927 26.431 54.4114ZM35.1143 80.9005H40.1113V56.09H35.1143V80.9005ZM55.5089 66.4003C54.2565 67.0846 53.1331 67.5042 52.0227 67.7496C51.4158 63.9212 50.8735 60.4543 50.8025 60.0282C50.654 59.0081 50.7315 58.6014 51.093 58.3948C51.4546 58.1947 51.8484 58.3496 52.6296 59.021C52.9653 59.3051 55.6058 61.6099 58.5239 64.16C57.7169 64.967 56.7679 65.6966 55.5089 66.4003ZM49.0142 54.1919C49.0077 54.1984 48.9302 54.2436 48.827 54.3017C48.7172 54.3598 48.6397 54.405 48.6333 54.4114C48.6397 54.405 48.6462 54.3985 48.6397 54.405C46.8772 55.3863 45.9734 56.9164 46.1477 59.3955C46.3995 62.843 48.9238 80.242 48.9238 80.242L53.7658 78.7055C53.7658 78.7055 53.3204 75.8842 52.7651 72.4237C54.4114 71.9331 56.0771 71.2423 57.7169 70.3384C59.3374 69.4346 60.8029 68.3952 62.0876 67.2589C64.7282 69.5637 66.878 71.4489 66.878 71.4489L70.7516 68.1563C70.7516 68.1563 57.3425 56.7679 54.5599 54.7278C52.5585 53.2752 50.796 53.2235 49.0142 54.1919ZM50.0665 47.0838C49.1885 45.373 46.109 46.7094 44.5531 45.2761C44.1205 44.8759 43.2102 44.056 42.7454 42.6421C42.3064 41.2928 41.6349 40.2211 40.5051 39.3495C38.4973 37.7871 33.7586 35.4049 34.0814 32.2156C34.2299 30.7824 35.9536 30.4789 36.6638 29.4395C37.0899 28.8197 37.148 27.9998 37.658 27.4317C38.2262 26.7925 37.4321 26.7732 36.8704 26.7473C35.676 26.6957 34.7851 27.9998 33.7973 28.5227C32.1769 29.3878 30.7113 30.5951 28.8907 31.0019C28.3549 31.1116 25.6111 31.9703 27.3994 32.4157C28.6196 32.7192 29.9883 32.6417 30.9954 33.5068C32.2931 34.6237 33.3518 36.0505 34.6624 37.1738C35.3274 37.7484 35.9665 38.2843 36.5089 38.988C37.1286 39.7885 37.0447 40.6988 37.5031 41.5446C37.9485 42.3516 38.8201 41.6091 39.3689 42.0675C41.1507 43.5524 38.6652 44.2755 38.0325 44.9663C37.1932 45.8701 37.0318 46.4641 35.4888 47.0903C34.8109 47.3614 30.4079 47.8908 29.8785 48.2976C29.3427 48.7107 29.6203 48.8334 29.7623 48.9819C29.9043 49.1433 30.6661 49.3822 30.9954 49.4145C32.8418 49.5888 38.536 50.6605 39.6981 49.2014C40.4922 48.2072 41.6737 48.0974 42.9842 48.4525C43.901 48.7043 45.7345 48.5171 47.3162 47.8715C48.233 47.497 50.7702 47.4518 50.0665 47.0838Z" fill="white"/>
</svg>
