<svg width="224" height="39" viewBox="0 0 224 39" fill="none" xmlns="http://www.w3.org/2000/svg">
<path d="M46.312 6.88H55.832C56.92 6.88 57.94 7.03867 58.892 7.356C59.8667 7.67333 60.7053 8.14933 61.408 8.784C62.1333 9.396 62.7 10.178 63.108 11.13C63.5387 12.0593 63.754 13.1473 63.754 14.394C63.754 15.6407 63.5387 16.7287 63.108 17.658C62.7 18.5873 62.1333 19.3693 61.408 20.004C60.7053 20.6387 59.8667 21.1147 58.892 21.432C57.94 21.7493 56.92 21.908 55.832 21.908H51.31V30H46.312V6.88ZM51.31 11.198V17.59H55.186C56.274 17.59 57.1467 17.3293 57.804 16.808C58.484 16.2867 58.824 15.482 58.824 14.394C58.824 13.306 58.484 12.5013 57.804 11.98C57.1467 11.4587 56.274 11.198 55.186 11.198H51.31ZM72.062 6.88V15.992H80.63V6.88H85.628V30H80.63V20.48H72.062V30H67.064V6.88H72.062ZM88.4377 30C88.8911 28.3227 89.4124 26.4753 90.0017 24.458C90.6137 22.418 91.2484 20.3893 91.9057 18.372C92.5631 16.332 93.2204 14.3713 93.8777 12.49C94.5577 10.6087 95.1924 8.97667 95.7817 7.594C95.8951 7.34467 96.0197 7.16333 96.1557 7.05C96.3144 6.93667 96.5977 6.88 97.0057 6.88H100.95C101.335 6.88 101.607 6.93667 101.766 7.05C101.947 7.16333 102.094 7.34467 102.208 7.594C102.82 8.97667 103.454 10.6087 104.112 12.49C104.769 14.3487 105.415 16.298 106.05 18.338C106.707 20.378 107.33 22.418 107.92 24.458C108.509 26.4753 109.03 28.3227 109.484 30H104.554C104.372 29.2747 104.168 28.5153 103.942 27.722C103.738 26.906 103.511 26.0673 103.262 25.206H94.5917C94.3424 26.0673 94.1044 26.906 93.8777 27.722C93.6737 28.5153 93.4811 29.2747 93.2997 30H88.4377ZM95.8497 20.82H102.038C101.539 19.12 101.029 17.454 100.508 15.822C99.9864 14.19 99.4764 12.66 98.9777 11.232C98.4564 12.66 97.9351 14.19 97.4137 15.822C96.8924 17.454 96.3711 19.12 95.8497 20.82ZM96.8697 4.942C97.1644 4.23933 97.5044 3.52533 97.8897 2.8C98.2751 2.052 98.6944 1.36066 99.1477 0.725998H103.942C103.398 1.36066 102.831 2.07466 102.242 2.868C101.652 3.66133 101.165 4.35267 100.78 4.942H96.8697ZM127.927 6.88V11.334H121.875V30H116.877V11.334H110.859V6.88H127.927ZM143.148 6.88L152.09 21.33V6.88H156.85V30H152.43L142.978 14.7V30H138.218V6.88H143.148ZM170.198 30.442C168.906 30.442 167.671 30.238 166.492 29.83C165.336 29.422 164.316 28.776 163.432 27.892C162.548 26.9853 161.846 25.8067 161.324 24.356C160.803 22.9053 160.542 21.1373 160.542 19.052V17.828C160.542 15.7427 160.803 13.9747 161.324 12.524C161.846 11.0733 162.548 9.906 163.432 9.022C164.316 8.11533 165.336 7.458 166.492 7.05C167.671 6.642 168.906 6.438 170.198 6.438C171.581 6.438 172.805 6.63067 173.87 7.016C174.936 7.37867 175.842 7.87733 176.59 8.512C177.338 9.14667 177.928 9.872 178.358 10.688C178.789 11.4813 179.061 12.3087 179.174 13.17L179.242 13.68H174.074C173.825 12.8867 173.417 12.2407 172.85 11.742C172.284 11.2207 171.422 10.96 170.266 10.96C169.337 10.96 168.566 11.164 167.954 11.572C167.342 11.9573 166.855 12.4787 166.492 13.136C166.152 13.7707 165.903 14.5073 165.744 15.346C165.608 16.1847 165.54 17.046 165.54 17.93V18.95C165.54 19.834 165.608 20.6953 165.744 21.534C165.903 22.35 166.152 23.0867 166.492 23.744C166.855 24.4013 167.342 24.934 167.954 25.342C168.566 25.7273 169.326 25.92 170.232 25.92C170.98 25.92 171.615 25.8067 172.136 25.58C172.68 25.3533 173.111 25.0587 173.428 24.696C173.768 24.3107 174.018 23.8573 174.176 23.336C174.335 22.8147 174.414 22.2707 174.414 21.704V21.262H170.198V16.842H179.378V20.514C179.378 22.3047 179.14 23.8347 178.664 25.104C178.188 26.3733 177.531 27.4047 176.692 28.198C175.876 28.9687 174.913 29.5353 173.802 29.898C172.692 30.2607 171.49 30.442 170.198 30.442ZM188.153 7.594C188.266 7.34467 188.391 7.16333 188.527 7.05C188.685 6.93667 188.969 6.88 189.377 6.88H193.321C193.706 6.88 193.978 6.93667 194.137 7.05C194.318 7.16333 194.465 7.34467 194.579 7.594C195.191 8.97667 195.825 10.6087 196.483 12.49C197.14 14.3487 197.786 16.298 198.421 18.338C199.078 20.378 199.701 22.418 200.291 24.458C200.88 26.4753 201.401 28.3227 201.855 30H196.925C196.743 29.2747 196.539 28.5153 196.313 27.722C196.109 26.906 195.882 26.0673 195.633 25.206H186.963C186.713 26.0673 186.475 26.906 186.249 27.722C186.045 28.5153 185.852 29.2747 185.671 30H180.809C181.262 28.3227 181.783 26.4753 182.373 24.458C182.985 22.418 183.619 20.3893 184.277 18.372C184.934 16.332 185.591 14.3713 186.249 12.49C186.929 10.6087 187.563 8.97667 188.153 7.594ZM188.221 20.82H194.409C193.91 19.12 193.4 17.454 192.879 15.822C192.357 14.19 191.847 12.66 191.349 11.232C190.827 12.66 190.306 14.19 189.785 15.822C189.263 17.454 188.742 19.12 188.221 20.82ZM207.956 6.88C208.681 8.62533 209.44 10.2913 210.234 11.878C211.027 13.442 211.866 15.006 212.75 16.57C213.611 15.006 214.427 13.442 215.198 11.878C215.968 10.2913 216.716 8.62533 217.442 6.88H222.508C221.488 9.48667 220.343 11.98 219.074 14.36C217.827 16.7173 216.535 19.018 215.198 21.262V30H210.2V21.262C208.862 19.018 207.559 16.706 206.29 14.326C205.043 11.9233 203.898 9.44133 202.856 6.88H207.956Z" fill="white"/>
<path d="M26.5257 18.498L4.52513 5.41298C2.73758 4.35034 0 5.38154 0 8.00986V34.1736C0 36.5315 2.54382 37.9526 4.52513 36.7705L26.5257 23.6917C28.4883 22.5285 28.4945 19.6612 26.5257 18.498Z" fill="#D21E47"/>
</svg>
