<svg width="35" height="35" viewBox="0 0 35 35" fill="none" xmlns="http://www.w3.org/2000/svg">
<path d="M14.9677 29.9337C18.2886 29.933 21.5138 28.8214 24.1297 26.7757L32.3545 35L35 32.3546L26.7753 24.1303C28.8221 21.5142 29.9345 18.2884 29.9353 14.9669C29.9353 6.71451 23.2205 0 14.9677 0C6.71487 0 0 6.71451 0 14.9669C0 23.2192 6.71487 29.9337 14.9677 29.9337ZM14.9677 3.74171C21.1587 3.74171 26.1934 8.77619 26.1934 14.9669C26.1934 21.1575 21.1587 26.192 14.9677 26.192C8.77666 26.192 3.74191 21.1575 3.74191 14.9669C3.74191 8.77619 8.77666 3.74171 14.9677 3.74171Z" fill="#D21E47"/>
</svg>
