<svg width="44" height="22" viewBox="0 0 44 22" fill="none" xmlns="http://www.w3.org/2000/svg">
<path d="M17.6 17.6H11C7.26 17.6 4.4 14.74 4.4 11C4.4 7.26 7.26 4.4 11 4.4H17.6C18.92 4.4 19.8 3.52 19.8 2.2C19.8 0.88 18.92 0 17.6 0H11C4.84 0 0 4.84 0 11C0 17.16 4.84 22 11 22H17.6C18.92 22 19.8 21.12 19.8 19.8C19.8 18.48 18.92 17.6 17.6 17.6ZM33 0H26.4C25.08 0 24.2 0.88 24.2 2.2C24.2 3.52 25.08 4.4 26.4 4.4H33C36.74 4.4 39.6 7.26 39.6 11C39.6 14.74 36.74 17.6 33 17.6H26.4C25.08 17.6 24.2 18.48 24.2 19.8C24.2 21.12 25.08 22 26.4 22H33C39.16 22 44 17.16 44 11C44 4.84 39.16 0 33 0ZM13.2 11C13.2 12.32 14.08 13.2 15.4 13.2H28.6C29.92 13.2 30.8 12.32 30.8 11C30.8 9.68 29.92 8.8 28.6 8.8H15.4C14.08 8.8 13.2 9.68 13.2 11Z" fill="#D21E47"/>
</svg>
