<svg width="40" height="40" viewBox="0 0 40 40" fill="none" xmlns="http://www.w3.org/2000/svg">
<path d="M11.6667 6.66602H19.0667C19.6556 6.66602 20.8334 6.99935 20.8334 8.33268C20.8334 9.66602 19.6556 9.99935 19.0667 9.99935H16.3H11.6667C11.2247 9.99935 10.8007 10.1749 10.4882 10.4875C10.1756 10.8001 10 11.224 10 11.666V18.3327C10 18.7747 9.82442 19.1986 9.51186 19.5112C9.1993 19.8238 8.77538 19.9993 8.33335 19.9993C7.89133 19.9993 7.4674 19.8238 7.15484 19.5112C6.84228 19.1986 6.66669 18.7747 6.66669 18.3327V11.666C6.66669 10.3399 7.19347 9.06816 8.13115 8.13048C9.06884 7.1928 10.3406 6.66602 11.6667 6.66602Z" fill="url(#paint0_linear_463_4529)"/>
<path d="M30.4882 22.1542C30.8007 21.8416 31.2247 21.666 31.6667 21.666C32.1087 21.666 32.5326 21.8416 32.8452 22.1542C33.1578 22.4667 33.3334 22.8907 33.3334 23.3327V28.3327C33.3334 29.6588 32.8066 30.9305 31.8689 31.8682C30.9312 32.8059 29.6594 33.3327 28.3334 33.3327H24.8834C24.3667 33.3327 23.3334 32.9993 23.3334 31.666C23.3334 30.3327 24.4445 29.9993 25 29.9993H28.3334C28.7754 29.9993 29.1993 29.8238 29.5119 29.5112C29.8244 29.1986 30 28.7747 30 28.3327V23.3327C30 22.8907 30.1756 22.4667 30.4882 22.1542Z" fill="url(#paint1_linear_463_4529)"/>
<path d="M35.9169 16.9115C35.6695 16.9128 35.4301 16.823 35.2449 16.6591C35.0595 16.495 34.9416 16.2683 34.9141 16.0224C34.7555 14.6186 34.0825 13.3219 33.0231 12.38C31.9636 11.4381 30.5921 10.9172 29.1706 10.9172C27.749 10.9172 26.3776 11.4381 25.3181 12.38C24.2587 13.3219 23.5856 14.6186 23.4271 16.0224C23.3976 16.2873 23.2637 16.5294 23.0551 16.6957L22.8993 16.5002L23.0551 16.6957C22.8465 16.8621 22.5802 16.939 22.3148 16.91C22.0495 16.881 21.8062 16.7483 21.6387 16.5406C21.5558 16.4377 21.494 16.3195 21.4569 16.1928C21.4199 16.066 21.4082 15.9332 21.4227 15.802L21.4228 15.8018C21.5782 14.4083 22.111 13.083 22.9641 11.9672C23.7346 10.9595 24.7403 10.1567 25.8915 9.62676C25.2723 9.04921 24.817 8.31576 24.5765 7.50052C24.297 6.55318 24.3213 5.54272 24.6461 4.6098C24.9708 3.67689 25.5799 2.86809 26.3881 2.29577C27.1963 1.72346 28.1636 1.41602 29.1555 1.41602C30.1474 1.41602 31.1147 1.72346 31.9229 2.29577C32.7312 2.86809 33.3402 3.67689 33.6649 4.6098C33.9897 5.54272 34.0141 6.55318 33.7345 7.50052C33.4941 8.31531 33.0393 9.04841 32.4205 9.62581C33.5765 10.1537 34.5871 10.9563 35.3615 11.9656C36.219 13.0831 36.7547 14.4118 36.9108 15.8092L36.911 15.8102C36.9393 16.0729 36.862 16.3358 36.6963 16.5418C36.5307 16.7477 36.2902 16.8798 36.0276 16.9099L36.0134 16.9115H35.9991H35.9169ZM35.9169 16.9115H35.9162V16.6615L35.9177 16.9115C35.9175 16.9115 35.9172 16.9115 35.9169 16.9115ZM29.1555 8.91581C28.6084 8.91581 28.0736 8.75445 27.6189 8.45229C27.1642 8.15014 26.8101 7.72083 26.601 7.21881C26.3919 6.7168 26.3372 6.16448 26.4438 5.63164C26.5503 5.09879 26.8134 4.60915 27.2 4.22471C27.5866 3.84025 28.0793 3.57828 28.6159 3.47213C29.1525 3.36598 29.7086 3.42047 30.214 3.62866C30.7194 3.83683 31.1511 4.18928 31.4547 4.64121C31.7583 5.09313 31.9203 5.62429 31.9203 6.16754C31.9203 6.89598 31.6294 7.59487 31.111 8.11038C30.5926 8.62593 29.8892 8.91581 29.1555 8.91581Z" fill="url(#paint2_linear_463_4529)" stroke="url(#paint3_linear_463_4529)" stroke-width="0.5"/>
<path d="M19.167 38.5777C18.8988 38.5791 18.6393 38.4818 18.4386 38.3042C18.2378 38.1264 18.11 37.8808 18.0803 37.6145C17.9033 36.0479 17.1522 34.6007 15.97 33.5497C14.7877 32.4986 13.2572 31.9174 11.671 31.9174C10.0847 31.9174 8.55425 32.4986 7.37199 33.5497C6.18977 34.6007 5.43863 36.0479 5.26168 37.6145C5.22978 37.9015 5.08467 38.1638 4.8587 38.344C4.63264 38.5242 4.34409 38.6076 4.05651 38.5762C3.76891 38.5447 3.50532 38.4009 3.32388 38.1758L3.32388 38.1758C3.23404 38.0644 3.16709 37.9364 3.12692 37.7991C3.08674 37.6618 3.07415 37.5179 3.08988 37.3757L3.08991 37.3755C3.26208 35.8322 3.85212 34.3644 4.79698 33.1286C5.65877 32.0015 6.78623 31.1059 8.07702 30.5192C7.377 29.8766 6.86285 29.0553 6.59306 28.1409C6.28411 27.0939 6.311 25.9771 6.66997 24.946C7.02893 23.9149 7.70203 23.021 8.59537 22.3884C9.4887 21.7558 10.5579 21.416 11.6542 21.416C12.7506 21.416 13.8198 21.7558 14.7131 22.3884C15.6064 23.021 16.2795 23.9149 16.6385 24.946C16.9974 25.9771 17.0243 27.0939 16.7154 28.1409C16.4457 29.0549 15.932 29.8758 15.2325 30.5183C16.5287 31.1026 17.6616 31.9981 18.5277 33.1269C19.4775 34.3646 20.0707 35.8361 20.2437 37.3837L20.2438 37.3847C20.2744 37.6693 20.1907 37.9541 20.0113 38.1772C19.8318 38.4003 19.5713 38.5435 19.2867 38.576L19.2725 38.5777H19.2583H19.167ZM19.167 38.5777H19.1661V38.3277L19.1676 38.5776C19.1674 38.5776 19.1672 38.5777 19.167 38.5777ZM11.6542 29.7491C11.0408 29.7491 10.4413 29.5682 9.93154 29.2295C9.42177 28.8907 9.02465 28.4094 8.7902 27.8465C8.55576 27.2836 8.49444 26.6643 8.61394 26.0668C8.73344 25.4693 9.02844 24.9203 9.46185 24.4893C9.89528 24.0583 10.4477 23.7646 11.0492 23.6456C11.6508 23.5266 12.2743 23.5876 12.8409 23.821C13.4075 24.0544 13.8915 24.4496 14.232 24.9563C14.5724 25.463 14.754 26.0586 14.754 26.6677C14.754 27.4845 14.4278 28.2681 13.8466 28.8461C13.2654 29.4241 12.4768 29.7491 11.6542 29.7491Z" fill="url(#paint4_linear_463_4529)" stroke="url(#paint5_linear_463_4529)" stroke-width="0.5"/>
<defs>
<linearGradient id="paint0_linear_463_4529" x1="6.66669" y1="6.66602" x2="34.2699" y2="7.67348" gradientUnits="userSpaceOnUse">
<stop stop-color="#D31E47"/>
<stop offset="1" stop-color="#4C4894"/>
</linearGradient>
<linearGradient id="paint1_linear_463_4529" x1="6.66669" y1="6.66602" x2="34.2699" y2="7.67348" gradientUnits="userSpaceOnUse">
<stop stop-color="#D31E47"/>
<stop offset="1" stop-color="#4C4894"/>
</linearGradient>
<linearGradient id="paint2_linear_463_4529" x1="21.6667" y1="1.66602" x2="37.1935" y2="2.23271" gradientUnits="userSpaceOnUse">
<stop stop-color="#D31E47"/>
<stop offset="1" stop-color="#4C4894"/>
</linearGradient>
<linearGradient id="paint3_linear_463_4529" x1="21.6667" y1="1.66602" x2="37.1935" y2="2.23271" gradientUnits="userSpaceOnUse">
<stop stop-color="#D31E47"/>
<stop offset="1" stop-color="#4C4894"/>
</linearGradient>
<linearGradient id="paint4_linear_463_4529" x1="3.33331" y1="21.666" x2="20.5853" y2="22.2957" gradientUnits="userSpaceOnUse">
<stop stop-color="#D31E47"/>
<stop offset="1" stop-color="#4C4894"/>
</linearGradient>
<linearGradient id="paint5_linear_463_4529" x1="3.33331" y1="21.666" x2="20.5853" y2="22.2957" gradientUnits="userSpaceOnUse">
<stop stop-color="#D31E47"/>
<stop offset="1" stop-color="#4C4894"/>
</linearGradient>
</defs>
</svg>
